# xmcd CD database file
#
# Track frame offsets:
#	150
#	22590
#	50801
#	71115
#	90251
#	117955
#	144810
#	171122
#	195950
#
# Disc length: 3061 seconds
#
# Revision: 0
# Processed by: cddbd v1.5.2PL0 Copyright (c) Steve Scherf et al.
# Submitted via: CDex 1.51
#
DISCID=690bf309
DTITLE=Bill Lancton - Vintage Melange
DYEAR=2004
DGENRE=Jazz
TTITLE0=House of the Rising Sun
TTITLE1=End of a Love Affair
TTITLE2=Soul Cowboy
TTITLE3=Naptown Blues
TTITLE4=Body and Soul
TTITLE5=Woodstock
TTITLE6=Sunshine Superman
TTITLE7=Boy's Night Out
TTITLE8=Blues for Barney K.
EXTD=YEAR: 2004
EXTT0=
EXTT1=
EXTT2=
EXTT3=
EXTT4=
EXTT5=
EXTT6=
EXTT7=
EXTT8=
PLAYORDER=
